<svg width="60" height="60" viewBox="0 0 60 60" fill="none" xmlns="http://www.w3.org/2000/svg">
<path d="M27.5 42.5H32.5V32.5H42.5V27.5H32.5V17.5H27.5V27.5H17.5V32.5H27.5V42.5ZM30 55C26.5417 55 23.2917 54.3542 20.25 53.0625C17.2083 51.7292 14.5625 49.9375 12.3125 47.6875C10.0625 45.4375 8.27083 42.7917 6.9375 39.75C5.64583 36.7083 5 33.4583 5 30C5 26.5417 5.64583 23.2917 6.9375 20.25C8.27083 17.2083 10.0625 14.5625 12.3125 12.3125C14.5625 10.0625 17.2083 8.29166 20.25 7C23.2917 5.66667 26.5417 5 30 5C33.4583 5 36.7083 5.66667 39.75 7C42.7917 8.29166 45.4375 10.0625 47.6875 12.3125C49.9375 14.5625 51.7083 17.2083 53 20.25C54.3333 23.2917 55 26.5417 55 30C55 33.4583 54.3333 36.7083 53 39.75C51.7083 42.7917 49.9375 45.4375 47.6875 47.6875C45.4375 49.9375 42.7917 51.7292 39.75 53.0625C36.7083 54.3542 33.4583 55 30 55ZM30 50C35.5833 50 40.3125 48.0625 44.1875 44.1875C48.0625 40.3125 50 35.5833 50 30C50 24.4167 48.0625 19.6875 44.1875 15.8125C40.3125 11.9375 35.5833 10 30 10C24.4167 10 19.6875 11.9375 15.8125 15.8125C11.9375 19.6875 10 24.4167 10 30C10 35.5833 11.9375 40.3125 15.8125 44.1875C19.6875 48.0625 24.4167 50 30 50Z" fill="#02141B"/>
</svg>
